<?xml version="1.0" standalone="no"?>
<!DOCTYPE svg PUBLIC "-//W3C//DTD SVG 20010904//EN"
 "http://www.w3.org/TR/2001/REC-SVG-20010904/DTD/svg10.dtd">
<svg version="1.0" xmlns="http://www.w3.org/2000/svg"
 width="512.000000pt" height="512.000000pt" viewBox="0 0 512.000000 512.000000"
 preserveAspectRatio="xMidYMid meet">

<g transform="translate(0.000000,512.000000) scale(0.100000,-0.100000)"
fill="#fff" stroke="none">
<path d="M3133 4058 l-682 -683 6 -43 c13 -97 -50 -229 -140 -290 -58 -41
-148 -66 -207 -59 l-46 6 -695 -695 -694 -694 253 0 252 0 0 -341 0 -341 29
-29 c23 -22 39 -29 70 -29 49 0 34 -12 511 419 l355 320 760 1 c828 0 821 0
927 57 99 54 185 169 208 278 7 34 10 451 8 1290 -3 1233 -3 1240 -24 1291
-11 28 -35 72 -53 98 -33 47 -123 126 -144 126 -7 0 -319 -307 -694 -682z
m203 -458 c69 -34 138 -108 164 -177 18 -47 21 -73 18 -133 -6 -94 -37 -159
-108 -223 -87 -78 -205 -101 -320 -62 -74 25 -169 118 -193 189 -19 56 -22
152 -7 208 14 49 66 125 112 161 87 70 232 86 334 37z"/>
<path d="M4334 2870 c-55 -22 -79 -93 -49 -149 19 -38 53 -49 165 -53 102 -5
135 -16 184 -65 61 -60 59 -37 57 -742 -2 -603 -4 -647 -21 -680 -21 -42 -52
-72 -97 -95 -25 -12 -62 -16 -165 -16 -238 0 -248 -9 -248 -235 l0 -149 -188
187 c-151 150 -194 187 -218 189 -16 1 -256 2 -534 2 l-505 1 -45 25 c-63 35
-99 91 -110 170 -7 54 -14 70 -40 93 -34 31 -75 35 -119 12 -40 -20 -55 -63
-47 -138 13 -134 112 -270 244 -334 l57 -28 520 -8 520 -9 261 -260 c242 -240
264 -260 302 -265 38 -5 45 -2 77 30 l35 35 0 231 0 231 53 0 c261 1 444 144
477 372 12 80 12 1191 1 1280 -30 233 -212 379 -468 377 -43 0 -88 -4 -99 -9z"/>
</g>
</svg>
