<svg version="1.1" xmlns="http://www.w3.org/2000/svg" xmlns:xlink="http://www.w3.org/1999/xlink" width="28" height="28" viewBox="0,0,255.99431,255.99431"><g fill="#ffffff" fill-rule="nonzero" stroke="none" stroke-width="1" stroke-linecap="butt" stroke-linejoin="miter" stroke-miterlimit="10" stroke-dasharray="" stroke-dashoffset="0" font-family="none" font-weight="none" font-size="none" text-anchor="none" style="mix-blend-mode: normal"><g transform="translate(0.83089,-0.00378) scale(9.14286,9.14286)"><path d="M14.5825,26.788c1.3556,1.6832 4.0416,1.2534 4.7965,-0.7674l8.2581,-22.10647c0.8316,-2.2261 -1.3549,-4.39287 -3.5941,-3.56162l-22.22822,8.25184c-2.03293,0.7547 -2.45909,3.42415 -0.76095,4.76655l4.3052,3.4032c0.66925,0.5291 1.61539,0.5368 2.29334,0.0188l10.41993,-7.96159c0.2983,-0.22793 0.7206,-0.20069 0.9867,0.06365c0.2661,0.26434 0.2935,0.68376 0.0641,0.98007l-8.013,10.34707c-0.5226,0.6748 -0.5136,1.6169 0.0218,2.2817z"></path></g></g></svg>